PathFileType	4	(X/Y/Z)	/Users/rkoike/Documents/python/sports2d/webcam_20250606_145141/webcam_20250606_145141_px_person00.trc
DataRate	CameraRate	NumFrames	NumMarkers	Units	OrigDataRate	OrigDataStartFrame	OrigNumFrames
30	30	14	22	m	30	0	4026
Frame#	Time	Hip			RHip			RKnee			RAnkle			RBigToe			RSmallToe			RHeel			LHip			LKnee			LAnkle			LBigToe			LSmallToe			LHeel			Neck			Head			Nose			RShoulder			RElbow			RWrist			LShoulder			LElbow			LWrist			
		X1	Y1	Z1	X2	Y2	Z2	X3	Y3	Z3	X4	Y4	Z4	X5	Y5	Z5	X6	Y6	Z6	X7	Y7	Z7	X8	Y8	Z8	X9	Y9	Z9	X10	Y10	Z10	X11	Y11	Z11	X12	Y12	Z12	X13	Y13	Z13	X14	Y14	Z14	X15	Y15	Z15	X16	Y16	Z16	X17	Y17	Z17	X18	Y18	Z18	X19	Y19	Z19	X20	Y20	Z20	X21	Y21	Z21	X22	Y22	Z22
0	0.0	496.216439151672	664.0890408833224	0.0	444.4998749771601	999.7613309961716	0.0	131.74037277628744	764.563113565028	0.0	871.8932291666666	172.02603626251224	0.0			0.0	993.2657813327389	125.0649896602456	0.0			0.0	622.0605506048485	879.5093906335392	0.0	855.2161255928008	651.1226120641459	0.0	894.3261718750001	200.49153208732608	0.0	922.0107671949602	72.21915119224116	0.0	933.1901348961724	83.39851889345357	0.0	899.6520317925348	150.4747251007292	0.0	573.6383000506266	378.83429655102407	0.0	512.973594582845	90.67952497738949	0.0	406.8115309583657	249.9224992625931	0.0	401.7566273538127	484.99657846352153	0.0	270.3162987734734	704.9036611292437	0.0	138.87392067263926	727.6514790511477	0.0	798.6007565638348	495.1064796169395	0.0	892.1246611188781	704.9021616218528	0.0	909.5487007325781	739.3848990369765	0.0
1	0.033341614906832295	528.4269611874532	723.45914838224	0.0	438.6142877705617	951.9430628563618	0.0	143.50142129393868	760.5708166050208	0.0	871.8932291666666	172.02603626251224	0.0			0.0	993.2657813327389	125.0649896602456	0.0			0.0	628.6671366639009	875.4776051408552	0.0	855.2161255928008	651.1226120641459	0.0	894.3261718750001	200.49153208732608	0.0	922.0107671949602	72.21915119224116	0.0	933.1901348961724	83.39851889345357	0.0	899.6520317925348	150.4747251007292	0.0	570.7000275001424	374.73143218160106	0.0	497.41235647534836	90.0091868625058	0.0	408.39604036376653	250.15344632789407	0.0	405.41488650390204	478.3079520249012	0.0	304.40884366367675	685.8487730238259	0.0	179.43079160633613	721.9347522368231	0.0	799.670413955227	491.04503755884946	0.0	890.6879352355577	716.345466330629	0.0	901.8694956303416	738.964913860163	0.0
2	0.06668322981366459	542.1979387475948	782.7820991323583	0.0	432.26406190989894	902.4675949753627	0.0	155.2441572221475	756.6634975418937	0.0	871.8932291666666	172.02603626251224	0.0			0.0	993.2657813327389	125.0649896602456	0.0			0.0	635.2986520812617	871.2254261642912	0.0	855.2161255928008	651.1226120641459	0.0	894.3261718750001	200.49153208732608	0.0	922.0107671949602	72.21915119224116	0.0	933.1901348961724	83.39851889345357	0.0	899.6520317925348	150.4747251007292	0.0	570.5732914503253	373.9966277281037	0.0	484.61579419347913	89.788663111296	0.0	413.7562245742129	253.7959507510405	0.0	408.49065079237624	475.29703894120155	0.0	325.4848385679879	676.5419903755368	0.0	196.24602211943264	723.6798508034686	0.0	800.1254054827651	490.0088157194899	0.0	890.8723493595124	726.0456656103021	0.0	894.261001222515	738.535863680774	0.0
3	0.10002484472049689	536.261364279694	812.1267521021186	0.0	424.8464432405446	848.9779510326243	0.0	167.00753814342158	752.7098354287366	0.0	871.8932291666666	172.02603626251224	0.0			0.0	993.2657813327389	125.0649896602456	0.0			0.0	641.9087474854282	867.139730947307	0.0	855.2161255928008	651.1226120641459	0.0	894.3261718750001	200.49153208732608	0.0	922.0107671949602	72.21915119224116	0.0	933.1901348961724	83.39851889345357	0.0	899.6520317925348	150.4747251007292	0.0	572.2340252847752	376.07545869351816	0.0	483.61661242455835	90.41188605377837	0.0	418.04098590207616	256.30443328301493	0.0	408.45024910549273	477.3705110226381	0.0	321.9095744818484	682.7184963257984	0.0	185.70109263169255	728.1091061701214	0.0	800.0349470826682	492.6211624502978	0.0	891.304600152371	727.110878892357	0.0	886.6082076934998	738.1094277942738	0.0
4	0.13336645962732918	527.6940640023403	793.5172737248992	0.0	417.34499361789295	794.7449057503867	0.0	178.90197897563968	748.2076815071232	0.0	871.8932291666666	172.02603626251224	0.0			0.0	993.2657813327389	125.0649896602456	0.0			0.0	648.3412021115824	864.5621570940732	0.0	855.2161255928008	651.1226120641459	0.0	894.3261718750001	200.49153208732608	0.0	922.0107671949602	72.21915119224116	0.0	933.1901348961724	83.39851889345357	0.0	899.6520317925348	150.4747251007292	0.0	571.7930105528376	376.25083580744496	0.0	491.70902725396684	90.7651804686065	0.0	417.94857149863327	253.45352195306407	0.0	404.6330666934969	480.8729813983891	0.0	305.6583314962803	693.2044122114461	0.0	174.07337204720454	726.9650046650911	0.0	799.9465006127092	494.7121939259901	0.0	891.0485536891184	719.5320883391521	0.0	878.4909090043035	737.7375271504077	0.0
5	0.16670807453416148	531.1896058815116	767.6998468942961	0.0	415.0154204282375	759.1831918743329	0.0	190.92978894480137	742.9455114701308	0.0	871.8932291666666	172.02603626251224	0.0			0.0	993.2657813327389	125.0649896602456	0.0			0.0	654.5547706892866	863.8957481084525	0.0	855.2161255928008	651.1226120641459	0.0	894.3261718750001	200.49153208732608	0.0	922.0107671949602	72.21915119224116	0.0	933.1901348961724	83.39851889345357	0.0	899.6520317925348	150.4747251007292	0.0	568.9084807615452	372.3289326026441	0.0	492.6112985988624	89.24365409469114	0.0	421.04035630848796	249.6715276012959	0.0	401.2104832992106	480.4073061856186	0.0	304.46844262995313	690.1543553591926	0.0	186.2192110075443	722.0471462589354	0.0	799.3476867083119	491.8683138550005	0.0	891.1461721397822	713.7417293986529	0.0	869.755530173143	737.4512981950595	0.0
6	0.20004968944099377	541.9741817599729	777.0408392560848	0.0	422.9158360564258	762.8150892251346	0.0	202.53710732903795	739.0696476161144	0.0	871.8932291666666	172.02603626251224	0.0			0.0	993.2657813327389	125.0649896602456	0.0			0.0	661.2669689874391	859.0895208206891	0.0	855.2161255928008	651.1226120641459	0.0	894.3261718750001	200.49153208732608	0.0	922.0107671949602	72.21915119224116	0.0	933.1901348961724	83.39851889345357	0.0	899.6520317925348	150.4747251007292	0.0	567.8382082962149	369.53715822236126	0.0	484.7739987260715	86.68187495184966	0.0	432.6346303772451	250.23689634292555	0.0	401.50231803636416	477.08190724615923	0.0	318.3460314910417	677.425165145386	0.0	207.62239490699935	720.0629724624596	0.0	796.9675459714985	486.353919761168	0.0	891.3037324643075	713.8560473431648	0.0	862.2417164343091	737.0461529479172	0.0
7	0.23339130434782607	545.067475349147	793.9336845749345	0.0	434.7709220183925	785.8874039981584	0.0	212.67042121789294	741.6908735309416	0.0	871.8932291666666	172.02603626251224	0.0			0.0	993.2657813327389	125.0649896602456	0.0			0.0	670.038261837557	836.7110135505794	0.0	855.2161255928008	651.1226120641459	0.0	894.3261718750001	200.49153208732608	0.0	922.0107671949602	72.21915119224116	0.0	933.1901348961724	83.39851889345357	0.0	899.6520317925348	150.4747251007292	0.0	569.7160730351663	373.8450369733827	0.0	484.56272057386985	85.70070202749048	0.0	446.6333121327065	252.6704511371653	0.0	403.32787052984315	477.3350849043787	0.0	321.1571231946982	675.1867737926698	0.0	208.5554305863759	721.0838325174265	0.0	794.3693052797362	484.4655663253566	0.0	890.0531208827994	713.2876398579849	0.0	860.1890985471115	735.9790780727953	0.0
8	0.26673291925465836	537.4965197609985	773.6601294776232	0.0	438.0834746106618	782.099836569691	0.0	220.99668073107856	754.4317024104826	0.0	871.8932291666666	172.02603626251224	0.0			0.0	993.2657813327389	125.0649896602456	0.0			0.0	680.9924361530249	791.5142817281301	0.0	855.2161255928008	651.1226120641459	0.0	894.3261718750001	200.49153208732608	0.0	922.0107671949602	72.21915119224116	0.0	933.1901348961724	83.39851889345357	0.0	899.6520317925348	150.4747251007292	0.0	570.6038671510014	382.07213269447726	0.0	496.96168133017323	86.21825355429397	0.0	458.0225391976254	252.06490894617775	0.0	403.64919750632316	481.66881884330775	0.0	308.95149776253305	685.9231727121196	0.0	194.73588544109847	720.9761364950596	0.0	794.1345201709203	486.9125479010404	0.0	888.0848921040596	709.7132578707252	0.0	866.3855476484072	733.7752004225418	0.0
9	0.30007453416149066	532.6856572507285	736.374287062901	0.0	434.71432180323427	750.1886264393153	0.0	228.31239556628407	774.6843942951247	0.0	871.8932291666666	172.02603626251224	0.0			0.0	993.2657813327389	125.0649896602456	0.0			0.0	689.2394325063661	745.7756061323316	0.0	855.2161255928008	651.1226120641459	0.0	894.3261718750001	200.49153208732608	0.0	922.0107671949602	72.21915119224116	0.0	933.1901348961724	83.39851889345357	0.0	899.6520317925348	150.4747251007292	0.0	569.3767276741504	385.0991564034252	0.0	508.80090643925195	84.89480470992245	0.0	469.3540071713759	249.19012933619055	0.0	403.3515329363129	482.46848457414694	0.0	304.67743866883063	692.1819944560083	0.0	191.3315701008085	719.6453171075473	0.0	794.1432874809959	487.7905971478478	0.0	887.1786117237853	708.5487288481218	0.0	878.5437896260016	730.6420944661845	0.0
10	0.33341614906832295	539.6517722387583	730.0905573832102	0.0	438.7204616190435	736.2554600566095	0.0	234.24255009905747	794.1008435922354	0.0	871.8932291666666	172.02603626251224	0.0			0.0	993.2657813327389	125.0649896602456	0.0			0.0	687.4939406262879	735.3641452653616	0.0	855.2161255928008	651.1226120641459	0.0	894.3261718750001	200.49153208732608	0.0	922.0107671949602	72.21915119224116	0.0	933.1901348961724	83.39851889345357	0.0	899.6520317925348	150.4747251007292	0.0	568.9679470100373	381.61592435976615	0.0	511.18894436250616	80.92270816975737	0.0	480.7052402312998	247.48297741455926	0.0	403.9145829074433	477.24864542185895	0.0	313.78420684796737	687.5777275609402	0.0	190.40795433733774	719.8800412575488	0.0	791.8292721047111	484.96087451819363	0.0	887.028512332018	710.9003355461508	0.0	890.8722435933654	727.8859096509078	0.0
11	0.36675776397515525	549.0030831202245	748.3781639325979	0.0	451.89327895497297	760.1477060521772	0.0	235.8109567165259	802.667905941841	0.0	871.8932291666666	172.02603626251224	0.0			0.0	993.2657813327389	125.0649896602456	0.0			0.0	676.2361580969201	765.4886651450322	0.0	855.2161255928008	651.1226120641459	0.0	894.3261718750001	200.49153208732608	0.0	922.0107671949602	72.21915119224116	0.0	933.1901348961724	83.39851889345357	0.0	899.6520317925348	150.4747251007292	0.0	569.5119652584251	380.5037488493109	0.0	510.45644093986994	78.25713446937401	0.0	486.7909182098829	246.75073006423605	0.0	403.7988647501712	474.63568952641486	0.0	315.4773572505896	684.6163218374331	0.0	169.15414796096624	721.3609969717227	0.0	790.6028839994708	484.14993918598236	0.0	886.131736890294	711.535223444336	0.0	897.7071010621594	727.6708192195603	0.0
12	0.40009937888198754	550.2363057963703	754.4960937016983	0.0	461.373055509206	795.3640684597701	0.0	230.72843566559825	795.7233238061331	0.0	871.8932291666666	172.02603626251224	0.0			0.0	993.2657813327389	125.0649896602456	0.0			0.0	664.6244165971335	804.6951206460947	0.0	855.2161255928008	651.1226120641459	0.0	894.3261718750001	200.49153208732608	0.0	922.0107671949602	72.21915119224116	0.0	933.1901348961724	83.39851889345357	0.0	899.6520317925348	150.4747251007292	0.0	569.3486895919222	385.1429546991704	0.0	513.8456385619012	79.40668007263046	0.0	487.1918807878113	244.9989988560622	0.0	402.6882969029138	478.61929876532616	0.0	303.9076625201807	689.4746330853276	0.0	147.03040908584362	721.4065257367362	0.0	793.9757571319506	488.26325584012625	0.0	884.6606547226088	710.4479486095045	0.0	896.7391908683238	731.357163908327	0.0
13	0.43344099378881984	548.4099970184226	755.5055947982864	0.0	460.53891975186923	818.0046285319359	0.0	220.79392734642803	778.1906323942294	0.0	871.8932291666666	172.02603626251224	0.0			0.0	993.2657813327389	125.0649896602456	0.0			0.0	658.3643894620643	829.4376531172246	0.0	855.2161255928008	651.1226120641459	0.0	894.3261718750001	200.49153208732608	0.0	922.0107671949602	72.21915119224116	0.0	933.1901348961724	83.39851889345357	0.0	899.6520317925348	150.4747251007292	0.0	570.4488069124241	386.93726315309215	0.0	517.4705203427718	81.18146073087311	0.0	489.1870806680335	242.20151105681455	0.0	403.55793984028793	479.8374472531862	0.0	299.58022896415804	692.243676117855	0.0	159.19078218262234	720.5002918798509	0.0	799.1275005704402	491.48626738340556	0.0	884.4279383160821	714.3482858186052	0.0	890.4521378628607	737.917321096269	0.0
